<svg xmlns="http://www.w3.org/2000/svg" width="540" height="544" viewBox="0 0 540 544" font-family="Helvetica, Arial" font-size="11">
<rect width="100%" height="100%" fill="white"/>
<polygon points="40.0,40.0 40.0,168.0 91.2,168.0 91.2,212.8 40.0,238.4 40.0,296.0 161.6,296.0 187.2,360.0 232.0,360.0 315.2,308.8 315.2,276.8 251.2,251.2 251.2,184.0 283.2,184.0 283.2,116.8 440.0,123.2 438.4,68.8 254.4,68.8 254.4,40.0" fill="#f4f1ea" stroke="#333" stroke-width="2"/>
<text x="211.0" y="198.0" text-anchor="middle" font-weight="bold">room_1</text>
<text x="211.0" y="212.0" text-anchor="middle" fill="#555">11.2 m² · h 2.43 m</text>
<text x="40.0" y="100.0" text-anchor="middle" fill="#1a5fb4" font-size="10">1.60</text>
<text x="65.6" y="164.0" text-anchor="middle" fill="#1a5fb4" font-size="10">0.64</text>
<text x="65.6" y="221.6" text-anchor="middle" fill="#1a5fb4" font-size="10">0.72</text>
<text x="40.0" y="263.2" text-anchor="middle" fill="#1a5fb4" font-size="10">0.72</text>
<text x="100.8" y="292.0" text-anchor="middle" fill="#1a5fb4" font-size="10">1.52</text>
<text x="174.4" y="324.0" text-anchor="middle" fill="#1a5fb4" font-size="10">0.86</text>
<text x="273.6" y="330.4" text-anchor="middle" fill="#1a5fb4" font-size="10">1.22</text>
<text x="283.2" y="260.0" text-anchor="middle" fill="#1a5fb4" font-size="10">0.86</text>
<text x="251.2" y="213.6" text-anchor="middle" fill="#1a5fb4" font-size="10">0.84</text>
<text x="283.2" y="146.4" text-anchor="middle" fill="#1a5fb4" font-size="10">0.84</text>
<text x="361.6" y="116.0" text-anchor="middle" fill="#1a5fb4" font-size="10">1.96</text>
<text x="439.2" y="92.0" text-anchor="middle" fill="#1a5fb4" font-size="10">0.68</text>
<text x="346.4" y="64.8" text-anchor="middle" fill="#1a5fb4" font-size="10">2.30</text>
<text x="147.2" y="36.0" text-anchor="middle" fill="#1a5fb4" font-size="10">2.68</text>
<circle cx="429.2" cy="68.8" r="5" fill="#2ec27e"/>
<text x="436.2" y="72.8" font-size="9" fill="#2ec27e">window 0.75</text>
<circle cx="429.2" cy="68.8" r="5" fill="#2ec27e"/>
<text x="436.2" y="72.8" font-size="9" fill="#2ec27e">window 2.35</text>
<circle cx="321.6" cy="68.8" r="5" fill="#2ec27e"/>
<text x="328.6" y="72.8" font-size="9" fill="#2ec27e">window 1.65</text>
<polygon points="264.0,366.4 321.6,398.4 372.8,504.0 500.8,504.0 401.6,430.4 401.6,379.2 334.4,353.6 334.4,308.8" fill="#f4f1ea" stroke="#333" stroke-width="2"/>
<text x="366.4" y="405.6" text-anchor="middle" font-weight="bold">room_2</text>
<text x="366.4" y="419.6" text-anchor="middle" fill="#555">2.3 m² · h 2.43 m</text>
<text x="292.8" y="378.4" text-anchor="middle" fill="#1a5fb4" font-size="10">0.82</text>
<text x="347.2" y="447.2" text-anchor="middle" fill="#1a5fb4" font-size="10">1.47</text>
<text x="436.8" y="500.0" text-anchor="middle" fill="#1a5fb4" font-size="10">1.60</text>
<text x="451.2" y="463.2" text-anchor="middle" fill="#1a5fb4" font-size="10">1.54</text>
<text x="401.6" y="400.8" text-anchor="middle" fill="#1a5fb4" font-size="10">0.64</text>
<text x="368.0" y="362.4" text-anchor="middle" fill="#1a5fb4" font-size="10">0.90</text>
<text x="299.2" y="333.6" text-anchor="middle" fill="#1a5fb4" font-size="10">1.14</text>
<text x="40" y="532" fill="#777" font-size="10">capture_1788930419 · tier lidar · 7.36s</text>
</svg>